<?xml version="1.0" encoding="utf-8"?>
<!-- Uploaded to: SVG Repo, www.svgrepo.com, Generator: SVG Repo Mixer Tools -->
<svg width="800px" height="800px" viewBox="-19.61 0 355.369 355.369" xmlns="http://www.w3.org/2000/svg"><defs><style>.a{fill:#ffffff;}.b{fill:#7a7473;}.c{fill:#211715;}.d{fill:#bdbdbd;}.e{fill:#3f88c9;}</style></defs><path class="a" d="M236.444,175.352c-.94-.412-14.6-8.291-17.13-14.553-1.165-2.887-1.363-6.52-1.378-10.012,11.72-6.8,20.844-22.2,22.545-26.818.278-.845.846-2.437,1.351-4.327l1.053-.163a13.22,13.22,0,0,0,6.153-2.774,19.949,19.949,0,0,0,5.161-6.773,31.4,31.4,0,0,0,3.2-16.645,10.461,10.461,0,0,0-1.1-4.215,7.41,7.41,0,0,0-5.329-3.543,7.849,7.849,0,0,0-6.28,1.837s1.546-41.394-52.81-41.394c-52.977,0-52.528,41.394-52.528,41.394a7.851,7.851,0,0,0-6.281-1.837,7.408,7.408,0,0,0-5.328,3.543,10.479,10.479,0,0,0-1.1,4.215,31.406,31.406,0,0,0,3.2,16.645,19.961,19.961,0,0,0,5.161,6.773,13.22,13.22,0,0,0,6.153,2.774l2.006.306a53.406,53.406,0,0,0,10.177,19.868A47.093,47.093,0,0,0,167.09,151.22c0,3.686-.134,7.6-1.382,10.676-2.538,6.263-14.053,13.044-14.994,13.456,0,0,4.56,30.445,41,30.445s46.223-30.667,46.223-30.667"/><path class="b" d="M167.836,7.069A54.141,54.141,0,0,0,147.67,21.723l-5.425,7.305c-11.5,11.923-17.938,29.734-11.2,57.1a7.7,7.7,0,0,1,2.027-.6,7.851,7.851,0,0,1,6.281,1.837l5.107-4.983c6.506-1.889,10.372-7.182,13.5-13.362,2.262-4.466,3.607-9.686,7.475-12.864,2.913-2.393,6.8-3.2,10.55-3.589a76.338,76.338,0,0,1,19.5.521c3.34.485,8.274-.1,10.155-.329a40.04,40.04,0,0,1,11.711.445c8.585,1.8,13.863,6.914,18.181,13.478a41.681,41.681,0,0,1,6.134,15.41l3.025,5.273a7.849,7.849,0,0,1,6.28-1.837,7.3,7.3,0,0,1,1.514.4,59.516,59.516,0,0,0,.366-39.238c-3.49-9.758-10.518-21.778-20.3-25.926l-8.468-6.426c-3.532-3.945-11.146-8.031-17.31-9.722a55.494,55.494,0,0,0-19.12-2.073A63.146,63.146,0,0,0,167.836,7.069Z"/><path class="c" d="M240.4,113.636a26.45,26.45,0,0,1-1.256,6.669c-.245.819-.513,1.629-.784,2.439-.079.232-.157.465-.238.7-.027.078-.062.152-.09.23-.162.455.244-.544.032-.07a52.9,52.9,0,0,1-3.505,6.413,62.6,62.6,0,0,1-13.916,16.051A26.536,26.536,0,0,1,210.3,151.3c-3.009.692-1.736,5.322,1.276,4.629,7.86-1.808,14.441-7.468,19.625-13.4a67.882,67.882,0,0,0,10.822-16.1,34.4,34.4,0,0,0,3.177-12.8c.1-3.09-4.7-3.086-4.8,0Z"/><path class="c" d="M139.168,112.892c2.862,16.507,11.823,32.69,27.138,40.63a36.794,36.794,0,0,0,13.232,3.947,2.416,2.416,0,0,0,2.4-2.4,2.454,2.454,0,0,0-2.4-2.4c-15.742-1.634-28-15.768-32.929-29.952a70.246,70.246,0,0,1-2.812-11.1,2.422,2.422,0,0,0-2.953-1.677,2.456,2.456,0,0,0-1.676,2.953Z"/><path class="c" d="M246.392,89.063a5.334,5.334,0,0,1,7.659.916c.955,1.442,1,3.388,1.051,5.058a27.821,27.821,0,0,1-.387,5.692c-1.22,6.849-4.845,15.118-12.468,16.436a2.419,2.419,0,0,0-1.676,2.952,2.454,2.454,0,0,0,2.952,1.676c7.936-1.372,12.659-8.791,14.884-15.943a33.21,33.21,0,0,0,1.457-11.688c-.227-3.909-1.324-7.583-4.869-9.7a10.349,10.349,0,0,0-12,1.206,2.42,2.42,0,0,0,0,3.394,2.449,2.449,0,0,0,3.394,0Z"/><path class="c" d="M141.054,85.669a10.328,10.328,0,0,0-10.713-1.828c-3.778,1.581-5.553,4.869-6.021,8.8a32.313,32.313,0,0,0,5.538,21.985,16.959,16.959,0,0,0,10.67,7.171,2.47,2.47,0,0,0,2.953-1.676,2.42,2.42,0,0,0-1.677-2.952c-7.623-1.318-11.248-9.587-12.468-16.436a27.892,27.892,0,0,1-.386-5.692c.047-1.651.082-3.64,1.051-5.058a5.342,5.342,0,0,1,7.659-.916,2.462,2.462,0,0,0,3.394,0,2.421,2.421,0,0,0,0-3.394Z"/><path class="c" d="M215.542,151.655c.073,3.977.3,8.434,2.508,11.884a27.877,27.877,0,0,0,5.963,6.3,77.038,77.038,0,0,0,7.191,5.2,33.292,33.292,0,0,0,4.029,2.391,2.472,2.472,0,0,0,3.284-.861,2.42,2.42,0,0,0-.861-3.284,31,31,0,0,1-3.637-2.141,69.866,69.866,0,0,1-6.157-4.327,42.171,42.171,0,0,1-3.24-2.851c-.449-.443-.886-.9-1.3-1.372a9.756,9.756,0,0,1-.864-1.082,8.057,8.057,0,0,1-1.531-3.636,30.193,30.193,0,0,1-.582-6.215c-.056-3.085-4.856-3.095-4.8,0Z"/><path class="c" d="M151.925,177.424a28.185,28.185,0,0,0,3.879-2.372,57.51,57.51,0,0,0,6.645-5.141,21.5,21.5,0,0,0,5.138-6.36c1.735-3.663,1.884-7.883,1.9-11.866.015-3.089-4.785-3.093-4.8,0a43.418,43.418,0,0,1-.283,5.632,18.248,18.248,0,0,1-.514,2.471,8.266,8.266,0,0,1-.673,1.784,19.674,19.674,0,0,1-4.62,5.352,50.234,50.234,0,0,1-5.627,4.256,26.221,26.221,0,0,1-3.47,2.1,2.419,2.419,0,0,0-.861,3.284,2.456,2.456,0,0,0,3.283.861Z"/><path class="c" d="M231.348,22.832c7.759,3.369,12.92,10.874,16.539,18.226a56.968,56.968,0,0,1,2.99,42.249c-.957,2.944,3.676,4.206,4.628,1.276a61.4,61.4,0,0,0-9.988-56.313,31.383,31.383,0,0,0-11.747-9.582,2.478,2.478,0,0,0-3.283.861,2.416,2.416,0,0,0,.861,3.283Z"/><path class="c" d="M139.751,28.174a51.74,51.74,0,0,0-10.457,16.992,59.32,59.32,0,0,0-3.328,23.009,92.7,92.7,0,0,0,2.2,16.186c.664,3.015,5.293,1.739,4.628-1.276-3.2-14.507-3.3-30.295,4.368-43.443a45.857,45.857,0,0,1,5.978-8.074c2.086-2.272-1.3-5.676-3.394-3.394Z"/><path class="c" d="M225.788,12.637c-3.791-4.145-9.16-6.924-14.315-8.969A55.346,55.346,0,0,0,192.649.018,62.289,62.289,0,0,0,160.182,8.2a58.042,58.042,0,0,0-14.209,11.823c-2.031,2.312,1.351,5.72,3.394,3.394a53,53,0,0,1,24.9-16.088,56.735,56.735,0,0,1,33.318.026c5.307,1.706,11,4.507,14.805,8.674,2.09,2.284,5.477-1.118,3.394-3.395Z"/><path class="c" d="M216.717,55.52A25.122,25.122,0,0,1,231.335,64.9a40.557,40.557,0,0,1,8.021,17.827,2.42,2.42,0,0,0,2.952,1.676,2.451,2.451,0,0,0,1.676-2.952c-2.512-13.616-11.807-27.485-25.991-30.564-3.012-.653-4.3,3.973-1.276,4.629Z"/><path class="c" d="M210.477,52.687c-1.569-4.937-5.8-8.609-10.417-10.679a29.221,29.221,0,0,0-16.919-2.135,2.417,2.417,0,0,0-1.677,2.952,2.459,2.459,0,0,0,2.953,1.676,23.6,23.6,0,0,1,13.22,1.651c3.434,1.508,7.027,4.084,8.211,7.811.932,2.933,5.568,1.68,4.629-1.276Z"/><path class="c" d="M196.127,50.775A69.91,69.91,0,0,0,182.42,49.8c-4.437.078-9.2.253-13.424,1.748a17.222,17.222,0,0,0-9.8,9c-1.935,3.856-3.376,7.883-5.721,11.535s-5.431,6.709-9.652,7.985c-2.949.891-1.693,5.525,1.276,4.628,8.262-2.5,13.049-9.944,16.319-17.463,1.555-3.576,3.053-7.781,6.535-9.937,3.578-2.214,8.124-2.448,12.22-2.629a66.243,66.243,0,0,1,14.675.735,2.467,2.467,0,0,0,2.952-1.676,2.42,2.42,0,0,0-1.676-2.952Z"/><path class="a" d="M39.809,175.451c-2.418-9.281-7.9-28.287-9.992-30.956-1.588-2.025-3.481-3.593-6.972-2.107-3,1.283-2.514,4.743-1.944,7.6.582,2.973,4.417,18.492,6.641,26.519a5.892,5.892,0,0,0-7.057-1.994c-2.354,1.074-3.262,3.081-3,4.531a13.7,13.7,0,0,0,1.085,3.235c-1.485-1.466-4.169-1.461-6.086-.435-2.034,1.089-4.083,4-3.08,6.106.438.92,1,1.985,1.633,3.057l-.709-.583c-2.583-2.124-7.068-.816-7.8,2.015-.559,2.174.385,4.738,1.6,6.726.17.278.353.581.549.9.11.342.172.532.172.532,1.657,5.131,4.882,12.97,9.715,18.557,2.242,2.59,4.832,5.16,6.867,7.938s2.54,5.865,3.532,9.189l.424,1.327c4.835-1.782,19.526-7.251,27.885-11.138l-.23-.723c-.774-3.572-1.628-8.216-1.122-11.243a76.607,76.607,0,0,1,3.414-10.012,18.556,18.556,0,0,0,1.429-8.376c-.357-3.254-1.2-7.908-3.622-11.3A6.834,6.834,0,0,0,51.126,183c-2.9-1.778-6.495-1.858-9.9-1.66l-.312-1.364C40.753,179.179,40.361,177.568,39.809,175.451Z"/><path class="c" d="M29.821,175.784c-1.749-6.366-3.355-12.773-4.918-19.187-.542-2.223-1.094-4.445-1.572-6.683a15.542,15.542,0,0,1-.457-3.4c.013-1.35.434-1.984,1.983-2.257,1.293-.227,1.913.4,2.775,1.348.056.061.449.556.226.256-.143-.192-.051-.072-.023-.029.066.1.134.2.193.3.143.25.276.5.4.761.159.327.3.66.448.993-.2-.452-.044-.106.048.125.1.256.2.511.3.768.383,1,.741,2,1.089,3.007,1.789,5.183,3.337,10.451,4.834,15.724,1.228,4.328,2.562,8.687,3.445,13.1a2.425,2.425,0,0,0,2.952,1.677,2.45,2.45,0,0,0,1.677-2.953c-.83-4.148-2.074-8.242-3.221-12.31-1.6-5.687-3.261-11.374-5.21-16.953-1.535-4.394-3.449-10.335-9.046-10.658a7.875,7.875,0,0,0-5.988,2.265,7.386,7.386,0,0,0-1.67,5.459,42.207,42.207,0,0,0,1.374,7.37c1.789,7.544,3.674,15.074,5.728,22.551.817,2.975,5.449,1.712,4.629-1.276Z"/><path class="c" d="M2.534,201.235a59.4,59.4,0,0,0,8.58,17.423c2.312,3.066,5.1,5.717,7.512,8.7,2.309,2.855,3.011,6.116,4.023,9.561.868,2.958,5.5,1.7,4.629-1.276-1.035-3.523-1.8-7.123-4.044-10.123-2.333-3.121-5.159-5.806-7.611-8.825-3.929-4.84-6.544-10.847-8.46-16.736-.952-2.925-5.588-1.673-4.629,1.276Z"/><path class="c" d="M43.8,198.971a46.4,46.4,0,0,0-1.26-5.289,6.427,6.427,0,0,0-2.879-3.943,10.862,10.862,0,0,0-4.176-1.172c-.606-.083-1.209-.235-1.811-.315-.452-.06-.177-.12-.022.043.14.148-.394-.63-.469-.836a2.036,2.036,0,0,1-.029-1.416,4.352,4.352,0,0,1,.3-.726l.217-.386q.393-.671.163-.245c-.3.2.322-.036.176-.033a6.074,6.074,0,0,0,1.009-.28A19.634,19.634,0,0,1,37.637,184c3.092-.278,6.454-.707,9.513-.009a7.1,7.1,0,0,1,3.8,1.916,11.369,11.369,0,0,1,2,3.754,23.015,23.015,0,0,1,1.467,7.76c-.07,4.371-2.164,8.07-3.535,12.165-.354,1.056-.7,2.116-1.011,3.187-.086.3-.176.606-.236.915-.05.255-.072.515-.106.773.11-.824-.065.457-.087.692-.358,3.725.513,7.609,1.292,11.232.65,3.019,5.278,1.741,4.629-1.276-.694-3.228-1.46-6.64-1.121-9.962.032-.32.31-.909.054-.435-.211.391-.017.124.039-.062.118-.386.215-.779.332-1.166.32-1.056.666-2.1,1.021-3.149.384-1.131.779-2.26,1.2-3.377q.117-.308.237-.613c.034-.088.266-.637.124-.315s.07-.144.113-.233c.144-.294.283-.586.412-.888a18.936,18.936,0,0,0,1.393-8.793,30.851,30.851,0,0,0-2.494-9.953,11.577,11.577,0,0,0-8.243-6.8c-3.6-.82-7.37-.484-11.005-.143a17.379,17.379,0,0,0-5.561,1.157,6.331,6.331,0,0,0-3.15,3.841,7.133,7.133,0,0,0,.6,6.212,5.492,5.492,0,0,0,4.226,2.675c1.193.179,3.467.067,4.159,1.228a10.057,10.057,0,0,1,.64,2.336,29.5,29.5,0,0,1,.83,3.578,2.416,2.416,0,0,0,2.952,1.677,2.463,2.463,0,0,0,1.676-2.953Z"/><path class="c" d="M14.693,200.9c.113.4.033-.466.022.1-.012.581.118-.253-.016.155-.044.133-.324.809-.079.33-.122.239-.239.476-.382.7-.071.114-.153.222-.224.336.021-.035.253-.276.068-.089-.16.162-.3.344-.465.5-.091.088-.186.168-.28.253.07-.064.407-.248.055-.052-.073.041-.148.087-.218.132-.407.263.035.067.069-.014a2.563,2.563,0,0,1-.459.134c.259-.053-.4.023-.522.024-.106,0-.953-.057-.462,0a6.245,6.245,0,0,1-.877-.186c-.144-.04-.285-.087-.427-.132-.023-.007-.365-.138-.125-.039.259.106-.152-.079-.209-.109-.094-.049-.188-.1-.28-.156-.121-.072-.237-.149-.352-.23.082.057.334.3.02,0-.2-.195-.408-.389-.6-.6-.179-.194-.348-.4-.516-.6-.248-.3.181.248-.057-.072-.071-.1-.142-.192-.212-.289-.371-.516-.721-1.046-1.061-1.583a25.875,25.875,0,0,1-1.717-2.993c-.017-.037-.166-.421-.052-.122-.045-.118-.088-.236-.13-.355-.1-.275-.183-.554-.256-.836-.042-.16-.071-.323-.112-.482-.016-.063-.075-.471-.028-.085-.039-.318-.022-.635-.038-.954,0-.073.04-.478-.019-.061.016-.114.041-.229.068-.342a3.036,3.036,0,0,0,.1-.349c.024-.23-.059.156-.087.195.1-.137.486-.663.067-.2.15-.165.3-.321.462-.479.124-.124.313-.151-.085.06.1-.053.192-.129.289-.187s.206-.109.3-.17c.368-.224-.268.047-.007-.006.23-.047.455-.155.686-.209.117-.028.239-.041.355-.073.294-.081-.561.014-.007.012.243,0,.486,0,.729,0,.168,0,.38.113-.1-.02.117.033.24.047.357.076s.233.073.351.1c.408.1-.17-.153.02,0,.123.1.814.523.373.177a2.466,2.466,0,0,0,3.395,0c.793-.865,1.053-2.565,0-3.394A7.824,7.824,0,0,0,3.293,188c-3.079,1.709-3.807,5.165-2.972,8.393a17.122,17.122,0,0,0,2.108,4.6,31.791,31.791,0,0,0,2.832,4.036,9.074,9.074,0,0,0,8.88,2.965c3.324-.776,6.129-5.015,5.181-8.366a2.4,2.4,0,0,0-4.629,1.276Z"/><path class="c" d="M20.493,180.82c-2.892-3.179-8.039-2.438-10.967.243a8.1,8.1,0,0,0-2.782,5.605c-.011,2.047,1.29,3.973,2.293,5.68,1.635,2.782,3.59,5.455,5.452,8.094a17.459,17.459,0,0,0,2.769,3.352,8.332,8.332,0,0,0,5.591,1.753c5.084-.218,7.889-5.19,6.608-9.865-.815-2.976-5.447-1.712-4.629,1.276a3.129,3.129,0,0,1-.424,3c.174-.229-.273.262-.342.329-.193.189.006.021.05-.013-.084.065-.176.125-.267.182a2.086,2.086,0,0,1-1.291.3,4.418,4.418,0,0,1-1.546-.27,3.674,3.674,0,0,0-.556-.256c-.037-.009-.311-.19.015.028s-.076-.078-.124-.127a13.438,13.438,0,0,1-1.71-2.108c-1.3-1.844-2.574-3.716-3.854-5.574a43.524,43.524,0,0,1-2.523-4.171,11.231,11.231,0,0,1-.715-1.458c.067.207,0-.16,0-.184a2.761,2.761,0,0,1,.266-.77,4.268,4.268,0,0,1,2.608-2.208,2.45,2.45,0,0,1,2.682.56,2.4,2.4,0,0,0,3.394-3.394Z"/><path class="c" d="M32.7,191.683a4.028,4.028,0,0,1-.245,1.924,3.108,3.108,0,0,1-.746.912,1.9,1.9,0,0,1-1.962.4,6.417,6.417,0,0,1-2.359-2.649c-1.019-1.673-2.067-3.326-3.125-4.975-1.727-2.693-3.665-5.455-4.407-8.611-.006-.026-.121-.466-.033-.17s.124-.256.009-.029c-.134.265.193-.618.056-.28a2.406,2.406,0,0,1,.888-1.1,3.326,3.326,0,0,1,3.456-.315c1.267.594,2.163,2.006,2.987,3.086.97,1.272,1.914,2.575,2.761,3.932,1.632,2.615,5.786.208,4.144-2.422a57.94,57.94,0,0,0-3.438-4.814,12.467,12.467,0,0,0-4.332-4.071c-4.188-1.949-9.954-.126-11.14,4.685-.5,2.024.3,4.083,1.108,5.913a44.98,44.98,0,0,0,3.366,5.95c1.283,2.013,2.53,4.048,3.811,6.062a10.241,10.241,0,0,0,4.8,4.4,6.871,6.871,0,0,0,6.564-1.4,7.692,7.692,0,0,0,2.636-6.424c-.156-3.074-4.957-3.093-4.8,0Z"/><path class="a" d="M24.819,237.818c4.591-1.69,23.17-8.566,30.971-12.571.863,1.735,2.627,5.831,3.822,8.34l.45.946C50.425,239.415,37.485,245.215,27.767,248c-.2-.51-.328-.829-.328-.829-1.215-3.019-3.009-8.2-3.4-9.065Z"/><path class="d" d="M313.735,352.678c-4.791-66.2-12.289-125.138-18.347-145.331-1.742-5.807-4.355-9.291-7.259-11.614s-7.732-3.866-11.088-5.487c-10.908-5.269-25.15-11.136-36.33-15.8l-2.132-.89a59.7,59.7,0,0,0-10.992-9.038c-4.883,20.932-13.558,43.528-20.435,63.893q-6.921,20.5-13.843,40.994c-6.154-15.258-10.223-25.527-15.446-40.994-6.877-20.365-15.552-42.961-20.435-63.893a60.465,60.465,0,0,0-11.546,9.614l-2.358.984c-11.18,4.665-25.422,10.531-36.33,15.8-3.356,1.621-7.3,2.381-9.838,5.106a28.427,28.427,0,0,0-5.917,9.655c-7.835,20.459-8.968,31.867-17.31,53.007-3.611-8.578-6.939-16.827-10.645-25.919-10.989,5.79-28.5,13.81-39.486,16.191,5.477,17.537,10.971,36.4,18.69,53.962,5.363,12.2,12.7,23.573,25.594,26.965a32.917,32.917,0,0,0,28.457-5.227c6.962-5.088,14.631-15.394,19.454-21.487l.468-.591c.589,7.4.443,14.538.443,22.371,0,9.751-.578,16.954-.588,28.019Z"/><path class="c" d="M29.753,246.532c-1.274-3.186-2.267-6.5-3.643-9.639l-1.434,3.526c8.479-3.118,16.938-6.313,25.249-9.857,2.386-1.017,4.766-2.062,7.076-3.243l-3.283-.861c1.349,2.744,2.512,5.577,3.822,8.34a2.421,2.421,0,0,0,3.283.861,2.452,2.452,0,0,0,.861-3.284c-1.309-2.763-2.472-5.6-3.822-8.339a2.44,2.44,0,0,0-3.283-.861c-8.672,4.429-17.995,7.712-27.117,11.113q-2.028.756-4.062,1.5a2.453,2.453,0,0,0-1.434,3.526c-.363-.829-.04-.084.026.094.107.29.218.58.325.871.289.782.572,1.565.858,2.348.632,1.733,1.265,3.466,1.949,5.179a2.476,2.476,0,0,0,2.953,1.676,2.416,2.416,0,0,0,1.676-2.952Z"/><path class="a" d="M195.092,173.575a.761.761,0,0,0-.2.2H190.35a5.867,5.867,0,0,0-2.013-1.138c-10.353-4.165-18.992-10.517-22.775-15.6-3.732,3.431-4.918,6.086-7.345,10.734,4.984,20,13.124,41.327,19.646,60.641,5.223,15.467,9.293,25.737,15.446,41l13.843-40.995c6.555-19.41,14.742-40.847,19.721-60.938-2.324-4.466-3.538-7.079-7.19-10.437-3.784,5.086-12.422,11.438-22.776,15.6A9.015,9.015,0,0,0,195.092,173.575Z"/><path class="a" d="M210.564,191.087a101.426,101.426,0,0,0,15.68-24.827c-1.945-3.751-3.253-6.182-6.561-9.224-3.784,5.086-12.422,11.438-22.776,15.6a5.877,5.877,0,0,0-2.013,1.138c-.247.462.235.868.462,1.23.356.57,2.105,2.033,5.081,5.3C203.814,184.013,207.769,187.747,210.564,191.087Z"/><path class="a" d="M174.681,191.087A101.426,101.426,0,0,1,159,166.26c1.945-3.751,3.252-6.182,6.561-9.224,3.783,5.086,12.422,11.438,22.775,15.6a5.867,5.867,0,0,1,2.013,1.138c.248.462-.234.868-.461,1.23-.356.57-2.105,2.033-5.081,5.3C181.431,184.013,177.476,187.747,174.681,191.087Z"/><path class="e" d="M195.513,176.713c-2.557.008-4.682.013-7.265.015-.847.839-2,2-3.44,3.579-.772.846-1.573,1.694-2.384,2.539.57,2.958.97,4.828,1.6,7.52.1.474.22.93.338,1.4a12.97,12.97,0,0,1,.508,3.111c0,.6-2.96,22.2-5.031,39.29,4.335,12.446,8.113,21.949,13.471,35.235q6.35-18.8,12.7-37.6c-2.6-17.42-5.361-35.622-5.345-36.586a18.965,18.965,0,0,1,1.218-5.512c.729-2.24,1.177-4.2,1.654-6.123-1.053-1.088-2.1-2.184-3.1-3.277-1.452-1.594-2.612-2.758-3.461-3.6Z"/><path class="c" d="M185.587,197.137c4.87,0,9.74-.107,14.61-.109a2.4,2.4,0,1,0,0-4.8c-4.87,0-9.74.107-14.61.109a2.4,2.4,0,1,0,0,4.8Z"/><path class="c" d="M180.339,184.663q.609,3.069,1.317,6.113a15.612,15.612,0,0,1,.8,4.269c-.087,1.454-.362,2.918-.551,4.361-.874,6.69-1.761,13.378-2.622,20.069q-.878,6.819-1.716,13.643a2.413,2.413,0,0,0,2.4,2.4,2.459,2.459,0,0,0,2.4-2.4c.97-7.942,2-15.877,3.038-23.809.614-4.685,1.46-9.4,1.835-14.113a14.676,14.676,0,0,0-.681-4.533c-.585-2.413-1.108-4.841-1.59-7.276a2.424,2.424,0,0,0-2.952-1.676,2.45,2.45,0,0,0-1.677,2.952Z"/><path class="c" d="M196.7,174.314q-4.332.007-8.664.018a2.4,2.4,0,0,0,0,4.8q4.332-.007,8.664-.018a2.4,2.4,0,1,0,0-4.8Z"/><path class="c" d="M208.319,231.155q-1.7-11.376-3.4-22.752-.629-4.234-1.241-8.47-.207-1.443-.406-2.889c-.066-.48.057.452-.021-.154-.019-.15-.04-.3-.059-.45-.031-.25-.068-.5-.09-.751a8.907,8.907,0,0,1,.394-3.079c.568-2.128,1.31-4.2,1.849-6.34.754-3-3.874-4.275-4.629-1.276-.837,3.326-2.6,6.886-2.446,10.368.065,1.447.364,2.909.565,4.341.883,6.27,1.833,12.53,2.77,18.792q1.044,6.967,2.087,13.936a2.417,2.417,0,0,0,2.953,1.676,2.462,2.462,0,0,0,1.676-2.952Z"/><path class="c" d="M189.594,272.921a49.757,49.757,0,0,0-2.73,16.155c.067,3.5.454,7.008.674,10.5.668,10.557,1.1,21.125,1.838,31.679q.757,10.864,1.71,21.716a2.463,2.463,0,0,0,2.4,2.4,2.419,2.419,0,0,0,2.4-2.4c-1.824-20.746-2.739-41.533-4.148-62.305a43.932,43.932,0,0,1,2.484-16.467c.959-2.944-3.674-4.2-4.628-1.276Z"/><path class="c" d="M142.886,172.8c-7.309,3.049-14.627,6.08-21.893,9.231-3.562,1.544-7.112,3.116-10.635,4.746-1.7.784-3.365,1.642-5.077,2.389-1.607.7-3.273,1.26-4.877,1.97-7.451,3.3-10.475,11.494-13.031,18.629-2.5,6.974-4.582,14.075-6.619,21.194-2.4,8.373-4.949,16.681-8.057,24.821a2.419,2.419,0,0,0,1.676,2.952,2.452,2.452,0,0,0,2.952-1.676c5.224-13.68,8.545-27.922,13.206-41.781a96.14,96.14,0,0,1,4.123-11.052c1.384-2.878,3.334-6.2,6.133-7.9a28.612,28.612,0,0,1,4.541-2.034c1.72-.672,3.378-1.457,5.046-2.246,3.381-1.6,6.791-3.133,10.215-4.637,7.813-3.432,15.7-6.695,23.573-9.98a2.481,2.481,0,0,0,1.677-2.953,2.416,2.416,0,0,0-2.953-1.676Z"/><path class="c" d="M225.272,163.88c-3.335,14.23-8.016,28.107-12.808,41.9Q205.142,226.859,198.009,248l-8.417,24.925c-.99,2.933,3.644,4.192,4.629,1.276q7.543-22.338,15.087-44.678c4.632-13.715,9.644-27.3,14.044-41.095,2.449-7.678,4.71-15.42,6.549-23.268.7-3-3.923-4.287-4.629-1.276Z"/><path class="c" d="M226.375,166.59a53.854,53.854,0,0,1,9.88,8.027,55.4,55.4,0,0,1,4.433,4.946c.586.748,1.138,1.525,1.655,2.321.261.4.513.808.752,1.223.1.175.2.353.3.531.071.13.139.261.206.393q.172.352-.058-.192l.328-1.211c.185-.181.155-.187-.091-.02l-.633.349-.844.465-2.321,1.28-4.43,2.444a2.419,2.419,0,0,0-.485,3.769c2.2,1.99,4.383,3.991,6.5,6.063q.772.756,1.534,1.525c.381.387,1.128.878,1.332,1.374.111.27.066.033.065-.035,0,.151-.148.337-.208.461-.327.677-.709,1.333-1.063,2q-3.978,7.448-8.1,14.815-8.431,15.111-17.247,30-4.827,8.2-9.716,16.368c-1.589,2.658,2.559,5.075,4.144,2.423,12.292-20.563,24.449-41.229,35.7-62.384.8-1.494,1.556-2.944,1.153-4.687-.39-1.686-1.839-2.9-3.007-4.067-2.488-2.5-5.087-4.882-7.7-7.248l-.486,3.769,5.907-3.258c1.725-.951,4.366-1.864,4.461-4.193.063-1.523-.967-3-1.763-4.24a43.654,43.654,0,0,0-2.952-4A59.9,59.9,0,0,0,228.8,162.446c-2.643-1.616-5.057,2.534-2.423,4.144Z"/><path class="c" d="M155.114,165.156c3.335,14.23,8.016,28.107,12.808,41.9,4.671,13.448,9.137,26.984,14.146,40.31,2.7,7.192,5.561,14.325,8.433,21.451a2.474,2.474,0,0,0,2.952,1.676,2.416,2.416,0,0,0,1.676-2.952c-5.174-12.841-10.19-25.731-14.639-38.844-4.7-13.86-9.75-27.605-14.2-41.55-2.449-7.678-4.71-15.42-6.549-23.268-.7-3.006-5.334-1.734-4.629,1.276Z"/><path class="c" d="M156.217,162.446A59.9,59.9,0,0,0,141.39,175.6a43.989,43.989,0,0,0-2.953,4c-.791,1.232-1.84,2.72-1.762,4.24.118,2.33,2.721,3.234,4.461,4.193l5.907,3.258-.486-3.769c-2.494,2.258-4.975,4.533-7.359,6.908a16.645,16.645,0,0,0-2.834,3.14,5.015,5.015,0,0,0,.111,4.958c2.619,5.313,5.667,10.459,8.594,15.607,6.121,10.767,12.488,21.393,18.947,31.96q5.378,8.8,10.829,17.555c1.626,2.619,5.78.212,4.144-2.422-12.32-19.841-24.6-39.744-35.761-60.267q-1.118-2.052-2.215-4.115c-.131-.246-.269-.491-.393-.741-.159-.319-.084-.148-.075-.17a8.924,8.924,0,0,1,1.707-1.771c2.487-2.5,5.087-4.882,7.7-7.248a2.418,2.418,0,0,0-.486-3.769l-4.43-2.444-2.109-1.163-1.055-.582c-.189-.1-.945-.741-.724-.329l.328,1.211c.016.384-.167.363.078-.069.1-.175.192-.355.291-.53q.351-.62.738-1.219c.51-.793,1.055-1.569,1.632-2.315A61.414,61.414,0,0,1,158.64,166.59c2.631-1.608.222-5.762-2.423-4.144Z"/><path class="c" d="M212.261,192.784a107.562,107.562,0,0,0,12.7-18.511q1.272-2.388,2.434-4.835c.439-.919,1.249-2.136,1.249-3.178a7.1,7.1,0,0,0-1.23-2.931,30.3,30.3,0,0,0-6.034-7.99,2.447,2.447,0,0,0-3.77.486c-3.958,5.247-10.729,9.426-16.762,12.427-1.936.963-3.966,1.706-5.908,2.646-2,.968-3.27,2.856-1.9,4.981a13.19,13.19,0,0,0,1.906,2.194c1.3,1.283,2.563,2.588,3.8,3.931,3.334,3.629,6.945,7.012,10.127,10.78a2.42,2.42,0,0,0,3.394,0,2.451,2.451,0,0,0,0-3.394c-2.986-3.536-6.363-6.716-9.507-10.106-1.33-1.434-2.659-2.863-4.047-4.24-.405-.4-.805-.811-1.212-1.211-.152-.149-.525-.671-.022.03-.059-.082-.379-.653-.333-.453v1.276l.069-.271-.617,1.059c-.255.3.08-.07.253-.166.229-.126.462-.247.7-.355.743-.336,1.512-.621,2.26-.945q2.058-.893,4.059-1.91a68.524,68.524,0,0,0,7.453-4.393,43.239,43.239,0,0,0,10.438-9.457l-3.769.485a30.515,30.515,0,0,1,6.185,8.738v-2.422a107.755,107.755,0,0,1-15.3,24.341,2.465,2.465,0,0,0,0,3.394A2.421,2.421,0,0,0,212.261,192.784Z"/><path class="c" d="M176.378,189.39a107.724,107.724,0,0,1-15.3-24.341v2.422a30.538,30.538,0,0,1,6.186-8.738l-3.769-.485a43.221,43.221,0,0,0,10.438,9.457A68.437,68.437,0,0,0,181.185,172q1.992,1.022,4.047,1.919c.748.326,1.508.624,2.255.95.254.111.507.222.752.353.166.089.714.606.414.254l-.617-1.059.069.271V173.41c.046-.2-.274.371-.333.453.5-.7.13-.179-.022-.03-.407.4-.807.809-1.212,1.211-1.389,1.377-2.718,2.806-4.047,4.24-3.144,3.39-6.522,6.57-9.507,10.106a2.464,2.464,0,0,0,0,3.394,2.42,2.42,0,0,0,3.394,0c2.787-3.3,5.918-6.29,8.876-9.432,1.419-1.506,2.8-3.041,4.266-4.5a25.056,25.056,0,0,0,2.152-2.245c1.26-1.62,1.659-3.66-.223-5.03-1.588-1.156-3.667-1.716-5.442-2.545a68.373,68.373,0,0,1-10.79-6.256,45.247,45.247,0,0,1-4.321-3.491,30.617,30.617,0,0,1-3.262-3.456,2.446,2.446,0,0,0-3.769-.486,30.318,30.318,0,0,0-6.034,7.99,7.125,7.125,0,0,0-1.23,2.931,7.843,7.843,0,0,0,1.157,2.984q1.207,2.542,2.526,5.029a107.562,107.562,0,0,0,12.7,18.511,2.42,2.42,0,0,0,3.394,0A2.451,2.451,0,0,0,176.378,189.39Z"/><path class="c" d="M269.7,352.969c-.016-9.667-.576-19.32-.589-28.986-.013-10.654-.082-21.245,1.813-31.769,3.644-20.243,6.685-40.6,9.313-60.995,1.348-10.457,2.575-20.931,3.614-31.424a2.416,2.416,0,0,0-2.4-2.4,2.453,2.453,0,0,0-2.4,2.4c-1.924,19.421-4.441,38.786-7.333,58.086q-2.272,15.171-4.928,30.283a147.828,147.828,0,0,0-2.149,15.972c-.349,5.261-.355,10.536-.34,15.8.031,11.014.581,22.015.6,33.028,0,3.088,4.805,3.094,4.8,0Z"/><path class="c" d="M100.142,201.647c1.937,19.477,4.482,38.9,7.412,58.247q2.313,15.279,5.012,30.5a125.514,125.514,0,0,1,1.893,15.115c.284,5.121.27,10.251.254,15.378-.033,10.7-.579,21.387-.6,32.086,0,3.088,4.8,3.093,4.8,0,.016-9.344.578-18.675.588-28.019.012-10.448.154-20.884-1.5-31.235-1.628-10.183-3.537-20.319-5.118-30.511q-2.321-14.961-4.285-29.974c-1.37-10.509-2.609-21.037-3.658-31.583a2.468,2.468,0,0,0-2.4-2.4,2.416,2.416,0,0,0-2.4,2.4Z"/><path class="c" d="M240.073,176.76c14.042,5.858,27.953,11.963,41.829,18.2a18.959,18.959,0,0,1,7.213,5.1,23.233,23.233,0,0,1,4.095,8.386c1.02,3.474,1.816,7.014,2.553,10.556,2.221,10.665,3.851,21.456,5.35,32.243,2,14.409,3.662,28.867,5.155,43.337q2.651,25.676,4.573,51.419.252,3.338.494,6.677a2.459,2.459,0,0,0,2.4,2.4,2.419,2.419,0,0,0,2.4-2.4q-1.914-26.41-4.525-52.763c-1.53-15.3-3.256-30.584-5.306-45.825-1.529-11.371-3.2-22.742-5.432-34-1.886-9.5-3.642-20.842-12.081-26.845-2.9-2.065-6.367-3.183-9.589-4.631-3.4-1.528-6.744-3.176-10.148-4.7-7.437-3.322-14.952-6.469-22.47-9.6l-5.235-2.182a2.416,2.416,0,0,0-2.953,1.676,2.462,2.462,0,0,0,1.677,2.952Z"/><path class="c" d="M209.212,282.7c.262.236.474.516.727.757q-.369-.486-.155-.191c.046.065.09.132.132.2.073.114.141.232.2.351.1.192.208.605-.029-.116.046.138.1.271.146.409a5.331,5.331,0,0,1,.18.818l-.086-.638a5.88,5.88,0,0,1,0,1.482l.086-.638a6.547,6.547,0,0,1-.169.822c-.032.115-.068.228-.106.341s-.229.581-.032.114,0-.025-.05.084-.107.2-.166.3-.114.181-.172.271c-.246.38.421-.485.145-.184-.065.071-.566.655-.631.613-.009-.006.567-.4.194-.16l-.173.113c-.133.083-.269.159-.408.23-.062.031-.126.06-.188.09-.336.166.5-.187.235-.1-.133.043-.264.1-.4.137a6.688,6.688,0,0,1-.98.214l.638-.086a6.924,6.924,0,0,1-1.779.006l.638.086a8.16,8.16,0,0,1-1.369-.351c.728.235.4.175.216.084-.115-.057-.228-.118-.338-.184-.081-.049-.159-.1-.238-.154-.328-.211.515.443.136.1a8.386,8.386,0,0,1-.612-.61c-.281-.31.348.514,0,0-.065-.1-.127-.2-.185-.3s-.1-.2-.158-.306c-.186-.36.222.628.039.057a4.638,4.638,0,0,1-.167-.736l.085.638a5.189,5.189,0,0,1,0-1.27l-.086.638a5.97,5.97,0,0,1,.194-.887c.042-.138.091-.273.14-.409.161-.452-.246.5-.029.074a9.19,9.19,0,0,1,.451-.813q.119-.184.246-.363a.914.914,0,0,1,.13-.175c-.067.051-.4.485-.137.187.089-.1.174-.2.27-.293s.459-.386.1-.107.032-.013.131-.075q.2-.124.408-.23a1.2,1.2,0,0,1,.19-.091c.008.007-.6.228-.278.119.136-.047.27-.1.408-.14a6.316,6.316,0,0,1,.963-.2l-.638.085a6.339,6.339,0,0,1,1.545,0l-.638-.086a5.962,5.962,0,0,1,.649.13c.088.023.176.05.263.078s.5.192.073.012c-.405-.172-.079-.031.013.015s.194.1.288.158.184.119.276.18c.334.219-.464-.38-.139-.1a2.558,2.558,0,0,0,1.7.7,2.4,2.4,0,0,0,1.7-4.1,7.538,7.538,0,0,0-4.841-1.842,8.009,8.009,0,0,0-4.445,1.217,8.485,8.485,0,0,0-3.556,8.538,7.351,7.351,0,0,0,3.018,4.294,8.251,8.251,0,0,0,11.419-2.6,8.258,8.258,0,0,0,.954-4.425,7.845,7.845,0,0,0-2.549-5.187,2.4,2.4,0,0,0-3.394,3.395Z"/><path class="c" d="M84.948,277.537C78.182,262.561,72,247.344,65.8,232.128a2.447,2.447,0,0,0-3.526-1.434q-9.584,5.04-19.56,9.3a111.051,111.051,0,0,1-19.353,6.654,2.422,2.422,0,0,0-1.677,2.952c3.507,11.236,6.886,22.515,10.771,33.629,1.963,5.615,4.053,11.187,6.351,16.674a108.434,108.434,0,0,0,6.679,13.828c4.761,7.979,11.39,14.948,20.389,17.945a35.778,35.778,0,0,0,29.9-3.475c4.666-2.894,8.546-6.882,12.138-10.991,3.483-3.984,6.7-8.189,9.976-12.338a2.475,2.475,0,0,0,0-3.394,2.415,2.415,0,0,0-3.394,0c-5.609,7.094-11.038,14.706-18.108,20.447a30.863,30.863,0,0,1-26.368,5.921C61.453,325.856,55.1,319.98,50.489,312.7c-5.469-8.638-9.037-18.522-12.467-28.1-4.286-11.969-7.923-24.153-11.71-36.285l-1.676,2.953c6.935-1.527,13.612-4.218,20.131-6.982q10.154-4.305,19.929-9.451L61.17,233.4c6.358,15.6,12.7,31.2,19.634,46.556a2.418,2.418,0,0,0,3.283.861,2.458,2.458,0,0,0,.861-3.284Z"/><path class="c" d="M248.142,118.485c.1,6.946.7,14.348-1.163,21.124-1.42,5.168-6.97,7.911-11.489,9.934a2.418,2.418,0,0,0-.861,3.284,2.459,2.459,0,0,0,3.284.861c5.449-2.44,11.609-6.02,13.488-12.094,2.276-7.353,1.648-15.522,1.541-23.109-.044-3.086-4.844-3.095-4.8,0Z"/><path class="c" d="M231.17,147.132c-2.575,2.017-3.047,5.309-1.138,7.6a8.059,8.059,0,0,0,6.408,2.512c2.575-.083,6.019-2.6,6.424-5.477.392-2.793-2.953-5.186-6.037-5.852A6.552,6.552,0,0,0,231.17,147.132Z"/><path class="a" d="M252.769,78.683c7.106,1.259,10.055,10.872,9.478,19.062-.547,7.754-2.605,16.041-9.363,19.956-2.67,1.21-6.7,1.814-9.055-.724s-2.873-6.334-3.078-9.871a93.958,93.958,0,0,1,.778-18.639c.492-3.461,1.2-6,3.79-8.188C247.594,78.361,250.753,78.326,252.769,78.683Z"/><path class="c" d="M252.131,81c4.878.951,6.927,6.5,7.563,11.13a32.371,32.371,0,0,1-2.215,16.63,14.583,14.583,0,0,1-4.9,6.3c-1.754,1.193-4.92,2.039-6.758.535-2.184-1.787-2.475-5.511-2.646-8.094a91.247,91.247,0,0,1,.036-12.185c.15-2.207.357-4.418.69-6.605a13.618,13.618,0,0,1,1.241-4.507A6.521,6.521,0,0,1,252.131,81a2.473,2.473,0,0,0,2.952-1.676,2.419,2.419,0,0,0-1.676-2.952c-3.869-.636-7.8.052-10.61,2.985-2.844,2.974-3.411,6.9-3.894,10.82a93.893,93.893,0,0,0-.662,14.478c.129,4.08.293,8.584,2.488,12.168,2.217,3.62,5.947,4.81,10,4.071,3.711-.677,6.642-3.163,8.824-6.133a25.638,25.638,0,0,0,4.1-9.738,41.535,41.535,0,0,0,1.028-10.744c-.35-7.091-3.284-16.35-11.274-17.907a2.461,2.461,0,0,0-2.952,1.676A2.421,2.421,0,0,0,252.131,81Z"/><path class="c" d="M182.552,129.542a20.81,20.81,0,0,0,10.02,2.315c3.572-.023,7.2-.718,10.065-2.949a2.413,2.413,0,0,0,0-3.394,2.461,2.461,0,0,0-3.394,0c.714-.557.109-.1-.074.022-.2.13-.413.251-.627.363-.154.081-.9.388-.286.156-.287.109-.572.22-.864.314a14.629,14.629,0,0,1-5.146.688,15.246,15.246,0,0,1-4.908-.661c-.317-.095-.625-.208-.938-.315-.1-.035-.2-.088-.3-.118.595.172.188.084.026.008-.388-.183-.77-.374-1.149-.574a2.453,2.453,0,0,0-3.284.861,2.427,2.427,0,0,0,.861,3.284Z"/><path class="c" d="M191.459,105.8a47.465,47.465,0,0,1,1.119,5.122l-.085-.638a3.1,3.1,0,0,1,.019.707l.086-.638a1.737,1.737,0,0,1-.078.318l.242-.574a1.2,1.2,0,0,1-.113.205l.376-.486a1.092,1.092,0,0,1-.168.165l.486-.375a3.408,3.408,0,0,1-.405.215l.573-.242a2.978,2.978,0,0,1-.684.2l.638-.086a2.7,2.7,0,0,1-.642,0l.638.086c-.242-.034-.479-.092-.721-.125a2.657,2.657,0,0,0-1.85.242,2.4,2.4,0,0,0-.861,3.283,2.292,2.292,0,0,0,1.435,1.1c.53.072,1.045.208,1.585.231a5.016,5.016,0,0,0,2.311-.546,3.282,3.282,0,0,0,1.836-2.172,5.548,5.548,0,0,0-.024-2.365c-.279-1.65-.66-3.286-1.085-4.9a2.4,2.4,0,1,0-4.628,1.276Z"/><path class="c" d="M164.156,91.354c-.855,2.779-.3,9.174,4.969,9.718,6.96-.041,7.33-7.773,4.987-11.408C172.194,86.688,166.553,85.45,164.156,91.354Z"/><path class="c" d="M219.9,91.354c.856,2.78.3,9.174-4.968,9.718-6.96-.042-7.331-7.773-4.988-11.408C211.857,86.688,217.5,85.45,219.9,91.354Z"/></svg>