<?xml version="1.0" ?><!-- Uploaded to: SVG Repo, www.svgrepo.com, Generator: SVG Repo Mixer Tools -->
<svg width="800px" height="800px" viewBox="0 0 64 64" data-name="Layer 1" id="Layer_1" xmlns="http://www.w3.org/2000/svg"><defs><style>
      .cls-1 {
        fill: #f5dd90;
      }

      .cls-2 {
        fill: #f76c5e;
      }

      .cls-3 {
        fill: #6096ba;
      }

      .cls-4 {
        fill: #274c77;
      }
    </style></defs><path class="cls-4" d="M46.2,32c0-.9,.3-1.72,.8-2.4-.36-2.14-1.2-4.11-2.4-5.81-.83-.13-1.63-.49-2.26-1.13s-1.01-1.44-1.13-2.26c-1.7-1.2-3.67-2.04-5.81-2.4-.67,.5-1.5,.8-2.4,.8s-1.72-.3-2.4-.8c-2.14,.36-4.11,1.2-5.81,2.4-.13,.83-.49,1.63-1.13,2.26s-1.44,1.01-2.26,1.13c-1.2,1.7-2.04,3.67-2.4,5.81,.5,.67,.8,1.5,.8,2.4s-.3,1.72-.8,2.4c.36,2.14,1.2,4.11,2.4,5.81,.83,.13,1.63,.49,2.26,1.13,.64,.64,1.01,1.44,1.13,2.26,1.7,1.2,3.67,2.04,5.81,2.4,.67-.5,1.5-.8,2.4-.8s1.72,.3,2.4,.8c2.14-.36,4.11-1.2,5.81-2.4,.13-.83,.49-1.63,1.13-2.26,.64-.64,1.44-1.01,2.26-1.13,1.2-1.7,2.04-3.67,2.4-5.81-.5-.67-.8-1.5-.8-2.4Z"/><circle class="cls-1" cx="33" cy="32" r="9"/><path class="cls-3" d="M7,32c0-14.36,11.64-26,26-26v4c-12.15,0-22,9.85-22,22"/><polygon class="cls-2" points="9 38 5 32 13 32 9 38"/><path class="cls-3" d="M46,54.51c-12.44,7.18-28.34,2.92-35.52-9.52l3.46-2c6.08,10.52,19.53,14.13,30.05,8.05"/><polygon class="cls-2" points="50.19 49.78 47 56.25 43 49.32 50.19 49.78"/><path class="cls-3" d="M46,9.48c12.44,7.18,16.7,23.08,9.52,35.52l-3.46-2c6.08-10.52,2.47-23.98-8.05-30.05"/><polygon class="cls-2" points="39.8 8.21 47 7.75 43 14.68 39.8 8.21"/></svg>