<?xml version="1.0" encoding="iso-8859-1"?>
<!-- Uploaded to: SVG Repo, www.svgrepo.com, Generator: SVG Repo Mixer Tools -->
<svg height="800px" width="800px" version="1.1" id="Capa_1" xmlns="http://www.w3.org/2000/svg" xmlns:xlink="http://www.w3.org/1999/xlink" 
	 viewBox="0 0 438.828 438.828" xml:space="preserve">
<g>
	<g id="XMLID_9_">
		<g>
			<path style="fill:#D87252;" d="M223.827,328.39c3.58,0,6.5,2.91,6.5,6.5c0,3.58-2.92,6.5-6.5,6.5c-3.59,0-6.5-2.92-6.5-6.5
				C217.327,331.3,220.238,328.39,223.827,328.39z"/>
			<path style="fill:#D87252;" d="M256.897,217.97c10.11,5.97,16.43,16.83,16.43,28.82c0,18.47-15.02,33.5-33.5,33.5
				c-5.99,0-11.88-1.61-17.03-4.66c-2.61-1.54-5.93-1.08-8.02,1.1c-3.42,3.59-8.02,5.56-12.95,5.56c-2.67,0-5.23-0.59-7.57-1.68
				L256.897,217.97z"/>
			<path style="fill:#333333;" d="M427.997,153.56c6.82,6.82,10.58,15.88,10.58,25.53c0,9.64-3.76,18.71-10.58,25.53l-43.34,43.34
				c-8.59,8.59-20.02,13.32-32.17,13.32c-12.16,0-23.59-4.73-32.18-13.32l-46.7-46.7l-7.3,7.3c12.4,8.56,20.02,22.72,20.02,38.23
				c0,25.64-20.86,46.5-46.5,46.5c-6.71,0-13.32-1.45-19.38-4.24c-5.34,4.05-11.79,6.24-18.62,6.24c-6.11,0-12.05-1.84-17.08-5.17
				L58.928,415.94c-6.5,6.5-15.13,10.07-24.31,10.07s-17.82-3.57-24.31-10.07c-13.41-13.4-13.41-35.21,0-48.62l135.27-135.27h-76.04
				l0.05,39.66c0.02,8.7-3.36,16.88-9.51,23.04s-14.33,9.55-23.04,9.55h-0.67c-8.96,0-17.37-3.47-23.69-9.76
				c-6.31-6.3-9.78-14.67-9.77-23.59c0.01-17.08,0.02-39.56,0.03-59.02c0-27.03,22-49.02,49.04-49.02h93.85l39.62-39.62
				l-30.36-30.36l-22.11,22.13c-6.19,6.19-14.42,9.61-23.18,9.61c0,0,0,0-0.01,0c-8.75,0-16.98-3.41-23.17-9.6l-0.48-0.48
				c-6.38-6.38-9.9-14.84-9.92-23.82c-0.01-8.98,3.48-17.42,9.83-23.77c11.26-11.25,25.79-25.78,38.81-38.79
				c20.53-20.53,53.94-20.52,74.48,0.01l49.35,49.35c0.14-14.8,5.99-29.28,16.85-40.15c22.44-22.44,58.95-22.44,81.39,0
				c10.87,10.87,16.86,25.32,16.86,40.7c0,15.37-5.99,29.82-16.86,40.69c-10.86,10.86-25.35,16.71-40.15,16.86l44.02,44.02
				l26.13-26.13C391.008,139.48,413.918,139.48,427.997,153.56z M425.578,179.09c0-3.08-0.6-6.08-1.75-8.85
				c-1.15-2.77-2.84-5.31-5.02-7.49c-9.01-9.01-23.67-9.01-32.69,0l-30.72,30.72c-2.54,2.54-6.66,2.54-9.2,0l-63.25-63.25
				c-2.17-2.17-2.52-5.58-0.84-8.15c1.69-2.58,4.95-3.62,7.82-2.49c16.51,6.48,35.28,2.57,47.81-9.96
				c17.37-17.37,17.37-45.63,0-63.01c-17.37-17.37-45.63-17.36-63,0c-12.54,12.54-16.45,31.31-9.96,47.82
				c1.12,2.86,0.08,6.12-2.49,7.81c-2.58,1.69-5.98,1.34-8.16-0.84l-63.99-63.99c-15.46-15.46-40.63-15.47-56.09-0.01
				c-13.02,13.02-27.55,27.55-38.81,38.8c-3.89,3.88-6.02,9.05-6.02,14.55c0.01,5.51,2.18,10.71,6.11,14.65l0.48,0.48
				c1.87,1.87,4.04,3.31,6.41,4.29c2.37,0.98,4.93,1.5,7.58,1.5c5.28,0,10.25-2.06,13.99-5.8l26.7-26.73
				c1.21-1.22,2.87-1.91,4.59-1.91c1.73,0,3.38,0.69,4.6,1.91l39.55,39.55c2.54,2.54,2.54,6.65,0,9.19L153.107,174
				c-1.22,1.22-2.87,1.91-4.59,1.91h-96.54c-19.87,0-36.04,16.16-36.04,36.02c-0.01,19.47-0.02,41.95-0.03,59.03
				c-0.01,5.43,2.11,10.54,5.95,14.37c3.86,3.85,9.01,5.97,14.51,5.97h0.67c5.23,0,10.14-2.04,13.84-5.73
				c3.69-3.7,5.72-8.62,5.71-13.84l-0.06-46.17c0-1.73,0.68-3.38,1.9-4.61c1.22-1.22,2.88-1.9,4.6-1.9h98.25c2.63,0,5,1.58,6,4.01
				c1.01,2.43,0.45,5.22-1.41,7.08L19.497,376.51c-8.33,8.34-8.33,21.9,0,30.24c4.04,4.04,9.41,6.26,15.12,6.26
				s11.08-2.22,15.12-6.26l219.27-219.28c2.54-2.54,6.66-2.54,9.2,0l51.29,51.29c6.14,6.14,14.3,9.52,22.99,9.52
				c8.68,0,16.84-3.38,22.98-9.52l43.34-43.33C423.168,191.07,425.578,185.26,425.578,179.09z M273.328,246.79
				c0-11.99-6.32-22.85-16.43-28.82l-62.64,62.64c2.34,1.09,4.9,1.68,7.57,1.68c4.93,0,9.53-1.97,12.95-5.56
				c2.09-2.18,5.41-2.64,8.02-1.1c5.15,3.05,11.04,4.66,17.03,4.66C258.307,280.29,273.328,265.26,273.328,246.79z"/>
			<path style="fill:#333333;" d="M223.827,315.39c10.75,0,19.5,8.74,19.5,19.5c0,10.75-8.75,19.5-19.5,19.5s-19.5-8.75-19.5-19.5
				C204.327,324.13,213.077,315.39,223.827,315.39z M230.327,334.89c0-3.59-2.92-6.5-6.5-6.5c-3.59,0-6.5,2.91-6.5,6.5
				c0,3.58,2.91,6.5,6.5,6.5C227.408,341.39,230.327,338.47,230.327,334.89z"/>
		</g>
		<g>
		</g>
	</g>
</g>
</svg>