<?xml version="1.0" ?><!-- Uploaded to: SVG Repo, www.svgrepo.com, Generator: SVG Repo Mixer Tools -->
<svg width="800px" height="800px" viewBox="0 0 64 64" data-name="Layer 1" id="Layer_1" xmlns="http://www.w3.org/2000/svg"><defs><style>
      .cls-1 {
        fill: #f5dd90;
      }

      .cls-2 {
        fill: #e7ecef;
      }

      .cls-3 {
        fill: #8b8c89;
      }

      .cls-4 {
        fill: #bc6c25;
      }

      .cls-5 {
        fill: #a3cef1;
      }

      .cls-6 {
        fill: #dda15e;
      }

      .cls-7 {
        fill: #6096ba;
      }

      .cls-8 {
        fill: #274c77;
      }
    </style></defs><path class="cls-5" d="M46,31v-3h-1.5c-.83,0-1.5-.67-1.5-1.5s.67-1.5,1.5-1.5h1.5v-3h-2.5c-.83,0-1.5-.67-1.5-1.5s.67-1.5,1.5-1.5h2.5v-2.76c0-.76,.43-1.45,1.11-1.79l.89-.45,.89,.45c.68,.34,1.11,1.03,1.11,1.79v14.76c.32,.28,.58,.62,.76,1,1.62-.34,3.13-.99,4.48-1.86-.38-1.08-.15-2.33,.71-3.19s2.11-1.09,3.19-.71c.87-1.35,1.52-2.86,1.86-4.48-1.03-.49-1.75-1.54-1.75-2.76s.72-2.27,1.75-2.76c-.34-1.62-.99-3.13-1.86-4.48-1.08,.38-2.33,.15-3.19-.71s-1.09-2.11-.71-3.19c-1.35-.87-2.86-1.52-4.48-1.86-.49,1.03-1.54,1.75-2.76,1.75s-2.27-.72-2.76-1.75c-1.62,.34-3.13,.99-4.48,1.86,.38,1.08,.15,2.33-.71,3.19s-2.11,1.09-3.19,.71c-.87,1.35-1.52,2.86-1.86,4.48,1.03,.49,1.75,1.54,1.75,2.76s-.72,2.27-1.75,2.76c.34,1.62,.99,3.13,1.86,4.48,1.08-.38,2.33-.15,3.19,.71s1.09,2.11,.71,3.19c1.35,.87,2.86,1.52,4.48,1.86,.18-.38,.44-.72,.76-1Z"/><path class="cls-6" d="M25.58,36.04l-3,1.29c-1.01,.43-2.15,.43-3.15,0l-3-1.29c-1.47-.63-2.42-2.08-2.42-3.68v-5.36c0-3.31,2.69-6,6-6h2c3.31,0,6,2.69,6,6v5.36c0,1.6-.95,3.05-2.42,3.68Z"/><path class="cls-8" d="M34.14,42c-1.82-1.85-4.35-3-7.14-3h-3c0,1.66-1.34,3-3,3s-3-1.34-3-3h-3c-5.52,0-10,4.48-10,10v7H27l4-14h3.14Z"/><path class="cls-6" d="M16,52h2c1.1,0,2,.9,2,2v2h-4v-4h0Z"/><path class="cls-8" d="M11,28.73c-.29,.17-.64,.27-1,.27-1.1,0-2-.9-2-2s.9-2,2-2c.42,0,.81,.13,1.14,.36"/><path class="cls-8" d="M31,28.73c.29,.17,.64,.27,1,.27,1.1,0,2-.9,2-2s-.9-2-2-2c-.42,0-.81,.13-1.14,.36"/><path class="cls-4" d="M18,36.71l1.42,.61c1.01,.44,2.15,.44,3.16,0l1.42-.61v2.29c0,1.66-1.34,3-3,3s-3-1.34-3-3v-2.29Z"/><polyline class="cls-3" points="27 56 31 42 53 42 49 56"/><path class="cls-8" d="M27.4,24.38h-.01c-.57-.23-1.23-.38-2.06-.38-4.33,0-4.33,4-8.67,4-1.13,0-1.97-.27-2.66-.67v-.33c0-3.31,2.69-6,6-6h2c2.37,0,4.42,1.38,5.39,3.38h.01Z"/><path class="cls-2" d="M28,31.6v-4.6c0-3.31-2.69-6-6-6h-2c-3.31,0-6,2.69-6,6v4h-2c-.55,0-1-.45-1-1v-3c0-5.52,4.48-10,10-10,2.76,0,5.26,1.12,7.07,2.93s2.93,4.31,2.93,7.07v3.18c0,.48-.34,.89-.8,.98l-2.2,.44Z"/><path class="cls-5" d="M40,48c.55,0,1,.45,1,1s-.45,1-1,1v-2Z"/><path class="cls-7" d="M21,33h0c-.11-.54,.24-1.07,.78-1.18l8.22-1.64v-2.86c0-4.79-3.61-8.98-8.38-9.3-5.24-.35-9.62,3.81-9.62,8.98v3h2v2h-2c-1.1,0-2-.9-2-2v-2.68c0-5.72,4.24-10.74,9.94-11.27,6.54-.62,12.06,4.53,12.06,10.95v3.18c0,.95-.67,1.77-1.61,1.96l-8.22,1.64c-.54,.11-1.07-.24-1.18-.78Z"/><path class="cls-7" d="M21,56h-2v-2c0-.55-.45-1-1-1h-7c-.55,0-1-.45-1-1v-4c0-.27,.11-.52,.29-.71l1.29-1.29c.39-.39,1.02-.39,1.41,0h0c.39,.39,.39,1.02,0,1.41l-1,1v2.59h6c1.66,0,3,1.34,3,3v2Z"/><rect class="cls-5" height="2" width="50" x="3" y="56"/><path class="cls-1" d="M41,19h-2c0-2.29,.86-4.47,2.42-6.14l1.46,1.37c-1.21,1.3-1.88,3-1.88,4.78Z"/><path class="cls-1" d="M54.4,16.15c-.96-2.15-2.92-3.67-5.23-4.05l.33-1.97c2.98,.5,5.5,2.44,6.73,5.21l-1.83,.81Z"/><path class="cls-8" d="M42,20.5h0c0-.83,.67-1.5,1.5-1.5h2.5s0-2.76,0-2.76c0-.76,.43-1.45,1.11-1.79l.89-.45,.89,.45c.68,.34,1.11,1.03,1.11,1.79v18.57c.09,.08,.18,.15,.26,.24,.41-.75,1.28-1.21,2.23-.98,.73,.17,1.32,.78,1.47,1.51,.27,1.29-.71,2.43-1.96,2.43-.4,0-.77-.12-1.08-.32-.31,1.33-1.49,2.32-2.92,2.32s-2.61-.99-2.92-2.32c-.31,.2-.68,.32-1.08,.32-1.24,0-2.22-1.14-1.96-2.43,.15-.73,.74-1.34,1.47-1.51,.96-.23,1.82,.24,2.23,.98,.08-.09,.17-.16,.26-.24v-6.8s-1.5,0-1.5,0c-.83,0-1.5-.67-1.5-1.5h0c0-.83,.67-1.5,1.5-1.5h1.5s0-3,0-3h-2.5c-.83,0-1.5-.67-1.5-1.5Z"/></svg>