<?xml version="1.0" encoding="iso-8859-1"?>
<!-- Generator: Adobe Illustrator 22.0.1, SVG Export Plug-In . SVG Version: 6.00 Build 0)  -->
<svg version="1.1" id="Layer_1" xmlns="http://www.w3.org/2000/svg" xmlns:xlink="http://www.w3.org/1999/xlink" x="0px" y="0px"
	 viewBox="0 0 2048 2048" style="enable-background:new 0 0 2048 2048;" xml:space="preserve">
<g>
	<path style="fill:#E1EFFF;" d="M1412.889,506.36V1588c0,22.091-17.909,40-40,40H327.559c-22.091,0-40-17.909-40-40V320
		c0-22.091,17.909-40,40-40h858.95l226.37,226.36H1412.889z"/>
	<polygon style="fill:#B0CCDD;" points="1186.509,280 1186.509,506.364 1412.883,506.364 	"/>
	<g>
		<g>
			<path style="fill:#B0CCDD;" d="M1043.249,810.626H437.527c-13.255,0-24-10.745-24-24s10.745-24,24-24h605.722
				c13.255,0,24,10.745,24,24S1056.503,810.626,1043.249,810.626z"/>
		</g>
		<g>
			<path style="fill:#B0CCDD;" d="M730.173,978.002H437.53c-13.255,0-24-10.745-24-24s10.745-24,24-24h292.643
				c13.255,0,24,10.745,24,24S743.428,978.002,730.173,978.002z"/>
		</g>
		<g>
			<path style="fill:#B0CCDD;" d="M1262.915,643.251H437.527c-13.255,0-24-10.745-24-24s10.745-24,24-24h825.387
				c13.255,0,24,10.745,24,24S1276.169,643.251,1262.915,643.251z"/>
		</g>
		<g>
			<path style="fill:#B0CCDD;" d="M1022.82,475.875H437.527c-13.255,0-24-10.745-24-24s10.745-24,24-24h585.292
				c13.255,0,24,10.745,24,24S1036.075,475.875,1022.82,475.875z"/>
		</g>
		<g>
			<path style="fill:#B0CCDD;" d="M794.749,1145.38H437.53c-13.255,0-24-10.745-24-24s10.745-24,24-24h357.218
				c13.255,0,24,10.745,24,24S808.003,1145.38,794.749,1145.38z"/>
		</g>
		<g>
			<path style="fill:#B0CCDD;" d="M763.249,1312.757H437.53c-13.255,0-24-10.745-24-24s10.745-24,24-24h325.718
				c13.255,0,24,10.745,24,24S776.503,1312.757,763.249,1312.757z"/>
		</g>
		<g>
			<path style="fill:#B0CCDD;" d="M814.749,1480.126H437.527c-13.255,0-24-10.745-24-24s10.745-24,24-24h377.222
				c13.255,0,24,10.745,24,24S828.003,1480.126,814.749,1480.126z"/>
		</g>
	</g>
	<g>
		<path style="fill:#BADB47;" d="M1337.564,1768l-27.141-28.216c-6.098-6.34-12.005-12.794-17.716-19.035
			c-9.649-10.543-18.762-20.502-28.288-29.445c-15.023-14.103-33.985-26.559-57.969-38.079
			c-11.618-5.586-23.417-10.872-35.91-16.468l-0.201-0.09c-18.055-8.093-36.725-16.462-55.686-26.106
			c-47.245-24.044-84.905-52.098-115.138-85.771c-21.955-24.453-40.125-51.924-54.006-81.651
			c-14.029-30.046-23.361-61.729-27.737-94.169c-1.618-12.031-2.621-24.882-3.069-39.302l-0.018-0.599l0-0.601l0.337-400.429
			l33.973-3.315c138.664-13.53,267.662-68.994,363.231-156.178l25.383-23.155l25.38,23.158
			c95.54,87.172,224.506,142.634,363.143,156.169l33.971,3.317l0.337,401.034l-0.019,0.599c-0.447,14.42-1.451,27.271-3.067,39.288
			c-4.376,32.454-13.709,64.137-27.738,94.184c-13.88,29.726-32.051,57.197-54.006,81.65
			c-30.234,33.673-67.893,61.728-115.131,85.767c-18.972,9.65-37.647,18.021-55.707,26.116l-0.18,0.08
			c-12.5,5.6-24.299,10.886-35.904,16.465c-23.996,11.526-42.959,23.982-57.984,38.086c-9.523,8.941-18.636,18.899-28.285,29.443
			c-5.712,6.241-11.619,12.696-17.718,19.036L1337.564,1768z"/>
		<path style="fill:#92CA32;" d="M1337.563,1597.973c-22.336-19.476-48.578-36.345-79.892-51.386
			c-13.01-6.254-25.506-11.852-38.736-17.78l-0.154-0.069c-17.616-7.896-34.145-15.305-50.49-23.619
			c-34.004-17.306-60.424-36.728-80.75-59.364c-14.166-15.78-25.889-33.501-34.841-52.67c-8.961-19.192-14.912-39.354-17.686-59.924
			c-1.024-7.617-1.689-16.129-2.024-25.94l0.248-295.263c111.968-21.509,216.642-66.704,304.366-131.411
			c87.698,64.694,192.347,109.889,304.286,131.4l0.249,295.259c-0.335,9.815-0.999,18.325-2.029,25.984
			c-2.769,20.537-8.72,40.703-17.684,59.898c-8.95,19.168-20.672,36.887-34.84,52.667c-20.324,22.636-46.742,42.057-80.763,59.37
			c-16.364,8.323-32.914,15.742-50.436,23.595l-0.329,0.148c-13.184,5.907-25.64,11.489-38.621,17.729
			C1386.143,1561.626,1359.9,1578.497,1337.563,1597.973z"/>
		<circle style="fill:#F3F6FF;" cx="1337.564" cy="1232.682" r="160.806"/>
		<g>
			<g>
				<path style="fill:#92CA32;" d="M1315.37,1304.2c-8.291,0-16.581-3.162-22.907-9.488l-33.856-33.856
					c-12.651-12.652-12.651-33.162,0-45.814c12.652-12.652,33.162-12.652,45.814,0l10.949,10.949l55.338-55.338
					c12.652-12.652,33.162-12.652,45.814,0c12.65,12.652,12.65,33.162,0,45.814l-78.245,78.245
					C1331.951,1301.038,1323.661,1304.2,1315.37,1304.2z"/>
			</g>
		</g>
	</g>
</g>
</svg>
