<?xml version="1.0" encoding="UTF-8"?>
<!DOCTYPE svg PUBLIC "-//W3C//DTD SVG 1.1//EN" "http://www.w3.org/Graphics/SVG/1.1/DTD/svg11.dtd">
<!-- Creator: CorelDRAW -->
<svg xmlns="http://www.w3.org/2000/svg" xml:space="preserve" width="2048px" height="2048px" style="shape-rendering:geometricPrecision; text-rendering:geometricPrecision; image-rendering:optimizeQuality; fill-rule:evenodd; clip-rule:evenodd"
viewBox="0 0 2048 2048"
 xmlns:xlink="http://www.w3.org/1999/xlink">
 <defs>
  <style type="text/css">
   <![CDATA[
    .fil2 {fill:none}
    .fil5 {fill:#37474F}
    .fil3 {fill:#546E7A}
    .fil7 {fill:#7B838E}
    .fil4 {fill:#80D8FF}
    .fil6 {fill:#8E96A3}
    .fil1 {fill:#B0BEC5}
    .fil13 {fill:#CB740A}
    .fil0 {fill:#CFD8DC}
    .fil12 {fill:#FFA000}
    .fil8 {fill:#415065;fill-rule:nonzero}
    .fil11 {fill:#7CB342;fill-rule:nonzero}
    .fil9 {fill:#EF5350;fill-rule:nonzero}
    .fil10 {fill:#FFAB40;fill-rule:nonzero}
   ]]>
  </style>
   <clipPath id="id0">
    <path d="M1024 -0.0011811c565.539,0 1024,458.462 1024,1024 0,565.539 -458.462,1024 -1024,1024 -565.539,0 -1024,-458.462 -1024,-1024 0,-565.539 458.462,-1024 1024,-1024z"/>
   </clipPath>
 </defs>
 <g id="Layer_x0020_1">
  <metadata id="CorelCorpID_0Corel-Layer"/>
  <path class="fil0" d="M1024 -0.0011811c565.539,0 1024,458.462 1024,1024 0,565.539 -458.462,1024 -1024,1024 -565.539,0 -1024,-458.462 -1024,-1024 0,-565.539 458.462,-1024 1024,-1024z"/>
  <g style="clip-path:url(#id0)">
   <g id="_289373288">
    <g>
     <polygon id="_2926908081" class="fil1" points="1230.35,578.827 2366.23,1714.71 2366.23,1833.22 1230.35,697.334 "/>
     <polygon id="_292690352" class="fil1" points="1470.79,700.949 2606.67,1836.83 2608.18,1838.66 2609.32,1840.76 2610.04,1843.07 2610.29,1845.56 1474.41,709.679 1474.16,707.19 1473.43,704.873 1472.3,702.777 "/>
     <polygon id="_292691648" class="fil1" points="1202.3,503.733 2338.18,1639.62 2339.96,1641.72 2341.69,1643.87 2343.37,1646.06 2345,1648.29 2346.58,1650.56 2348.1,1652.87 2349.57,1655.22 2350.98,1657.61 2352.34,1660.03 2353.64,1662.49 2354.88,1664.98 2356.06,1667.51 2357.18,1670.06 2358.25,1672.65 2359.24,1675.28 2360.18,1677.93 2361.05,1680.61 2361.86,1683.32 2362.61,1686.05 2363.28,1688.82 2363.89,1691.6 2364.43,1694.42 2364.9,1697.25 2365.31,1700.11 2365.64,1702.99 2365.9,1705.89 2366.08,1708.81 2366.19,1711.75 2366.23,1714.71 1230.35,578.827 1230.31,575.869 1230.2,572.93 1230.02,570.009 1229.76,567.108 1229.42,564.228 1229.02,561.369 1228.55,558.534 1228.01,555.722 1227.4,552.933 1226.72,550.172 1225.98,547.435 1225.17,544.727 1224.3,542.046 1223.36,539.395 1222.36,536.772 1221.3,534.182 1220.18,531.623 1219,529.098 1217.76,526.604 1216.46,524.146 1215.1,521.724 1213.69,519.338 1212.22,516.99 1210.7,514.68 1209.12,512.409 1207.49,510.178 1205.81,507.987 1204.08,505.839 "/>
     <polygon id="_292690904" class="fil1" points="1474.41,820.786 2610.29,1956.67 2610.29,1981.36 1474.41,845.475 "/>
     <polygon id="_292690976" class="fil1" points="1474.41,845.475 2610.29,1981.36 2610.29,2289.41 1474.41,1153.53 "/>
     <polygon id="_292691048" class="fil1" points="1474.41,1153.53 2610.29,2289.41 2610.04,2291.9 2609.32,2294.22 2608.18,2296.31 2606.67,2298.14 2604.84,2299.65 2602.75,2300.79 2600.43,2301.5 2597.94,2301.76 1462.06,1165.87 1464.55,1165.62 1466.86,1164.9 1468.96,1163.76 1470.79,1162.26 1472.3,1160.43 1473.43,1158.33 1474.16,1156.02 "/>
     <polygon id="_292691720" class="fil1" points="1462.06,1165.87 2597.94,2301.76 2366.23,2301.76 1230.35,1165.87 "/>
     <polygon id="_292691864" class="fil1" points="1230.35,1165.87 2366.23,2301.76 2366.23,2605.05 1230.35,1469.17 "/>
     <polygon id="_292691936" class="fil1" points="1230.35,1469.17 2366.23,2605.05 2366.19,2608.01 2366.08,2610.95 2365.9,2613.87 2365.64,2616.77 2365.31,2619.65 2364.9,2622.51 2364.43,2625.34 2363.89,2628.16 2363.28,2630.94 2362.61,2633.71 2361.86,2636.44 2361.05,2639.15 2360.18,2641.83 2359.24,2644.48 2358.25,2647.1 2357.18,2649.7 2356.06,2652.25 2354.88,2654.78 2353.64,2657.27 2352.34,2659.73 2350.98,2662.15 2349.57,2664.54 2348.1,2666.89 2346.58,2669.2 2345,2671.47 2343.37,2673.7 2341.69,2675.89 2339.96,2678.04 2338.18,2680.15 2336.35,2682.21 2334.47,2684.23 2332.55,2686.2 1196.67,1550.32 1198.59,1548.34 1200.47,1546.33 1202.3,1544.27 1204.08,1542.16 1205.81,1540.01 1207.49,1537.82 1209.12,1535.59 1210.7,1533.32 1212.22,1531.01 1213.69,1528.66 1215.1,1526.27 1216.46,1523.85 1217.76,1521.39 1219,1518.9 1220.18,1516.37 1221.3,1513.81 1222.36,1511.22 1223.36,1508.6 1224.3,1505.95 1225.17,1503.27 1225.98,1500.56 1226.72,1497.82 1227.4,1495.06 1228.01,1492.27 1228.55,1489.46 1229.02,1486.63 1229.42,1483.77 1229.76,1480.89 1230.02,1477.99 1230.2,1475.07 1230.31,1472.13 "/>
     <polygon id="_292691672" class="fil1" points="1196.67,1550.32 2332.55,2686.2 2330.58,2688.12 2328.56,2690 2326.5,2691.83 2324.39,2693.61 2322.24,2695.34 2320.05,2697.02 2317.82,2698.65 2315.55,2700.23 2313.24,2701.75 2310.89,2703.22 2308.51,2704.63 2306.08,2705.99 2303.62,2707.29 2301.13,2708.53 2298.61,2709.71 2296.05,2710.83 2293.46,2711.9 2290.84,2712.89 2288.18,2713.83 2285.5,2714.7 2282.8,2715.51 2280.06,2716.26 2277.3,2716.93 2274.51,2717.54 2271.7,2718.08 2268.86,2718.56 2266,2718.96 2263.12,2719.29 2260.22,2719.55 2257.3,2719.73 2254.36,2719.85 2251.41,2719.88 1115.52,1584 1118.48,1583.96 1121.42,1583.85 1124.34,1583.66 1127.24,1583.41 1130.12,1583.08 1132.98,1582.67 1135.82,1582.2 1138.63,1581.66 1141.42,1581.05 1144.18,1580.37 1146.91,1579.63 1149.62,1578.82 1152.3,1577.95 1154.95,1577.01 1157.58,1576.01 1160.17,1574.95 1162.73,1573.83 1165.25,1572.65 1167.74,1571.41 1170.2,1570.11 1172.62,1568.75 1175.01,1567.34 1177.36,1565.87 1179.67,1564.35 1181.94,1562.77 1184.17,1561.14 1186.36,1559.46 1188.51,1557.73 1190.61,1555.95 1192.68,1554.12 1194.69,1552.24 "/>
     <polygon id="_292659560" class="fil1" points="1115.52,1584 2251.41,2719.88 1824.3,2719.88 688.421,1584 "/>
     <polygon id="_292659464" class="fil1" points="688.421,1584 1824.3,2719.88 1821.35,2719.85 1818.41,2719.73 1815.49,2719.55 1812.58,2719.29 1809.71,2718.96 1806.85,2718.56 1804.01,2718.08 1801.2,2717.54 1798.41,2716.93 1795.65,2716.26 1792.91,2715.51 1790.21,2714.7 1787.53,2713.83 1784.87,2712.89 1782.25,2711.89 1779.66,2710.83 1777.1,2709.71 1774.58,2708.53 1772.08,2707.29 1769.63,2705.99 1767.2,2704.63 1764.82,2703.22 1762.47,2701.75 1760.16,2700.23 1757.89,2698.65 1755.65,2697.02 1753.46,2695.34 1751.32,2693.61 615.434,1557.73 617.582,1559.46 619.773,1561.14 622.004,1562.77 624.276,1564.35 626.587,1565.87 628.936,1567.34 631.322,1568.75 633.745,1570.11 636.202,1571.4 638.695,1572.65 641.221,1573.83 643.78,1574.95 646.371,1576.01 648.993,1577.01 651.644,1577.95 654.324,1578.82 657.034,1579.63 659.769,1580.37 662.532,1581.05 665.319,1581.66 668.131,1582.2 670.966,1582.67 673.824,1583.08 676.704,1583.41 679.604,1583.66 682.525,1583.85 685.464,1583.96 "/>
     <polygon id="_292659680" class="fil1" points="1474.41,709.679 2610.29,1845.56 2610.29,1956.67 1474.41,820.786 "/>
    </g>
    <path id="_289373480" class="fil1" d="M1230.35 578.827l0 118.507 231.709 0c6.81733,0 12.3461,5.52638 12.3461,12.3449l0 111.108 0 24.6886 0 308.053c0,6.81851 -5.52874,12.3449 -12.3461,12.3449l-231.709 0 0 303.298c0,31.637 -12.9,60.3591 -33.6851,81.1453 -20.7827,20.7815 -49.5,33.6851 -81.1406,33.6851l-427.103 0c-31.637,0 -60.3579,-12.9059 -81.1442,-33.6851 -20.778,-20.7862 -33.6827,-49.5083 -33.6827,-81.1453l0 -890.344c0,-31.6347 12.9024,-60.3626 33.6827,-81.143 20.7862,-20.7791 49.5071,-33.6851 81.1442,-33.6851l427.103 0c31.6406,0 60.3603,12.9012 81.1406,33.6851 20.7851,20.7803 33.6851,49.5012 33.6851,81.143z"/>
   </g>
  </g>
  <path class="fil2" d="M1024 -0.0011811c565.539,0 1024,458.462 1024,1024 0,565.539 -458.462,1024 -1024,1024 -565.539,0 -1024,-458.462 -1024,-1024 0,-565.539 458.462,-1024 1024,-1024z"/>
  <path class="fil3" d="M688.421 464l427.105 0c31.6394,0 60.3591,12.8988 81.1394,33.6851 20.7851,20.7803 33.6851,49.5 33.6851,81.1418l0 890.344c0,31.637 -12.9,60.3591 -33.6851,81.1442 -20.7839,20.7827 -49.5,33.6862 -81.1394,33.6862l-427.105 0c-31.6359,0 -60.3591,-12.9059 -81.1442,-33.6862 -20.778,-20.7851 -33.6827,-49.5071 -33.6827,-81.1442l0 -890.344c0,-31.6347 12.9024,-60.3615 33.6827,-81.1418 20.7851,-20.7803 49.5083,-33.6851 81.1442,-33.6851z"/>
  <polygon class="fil4" points="1170.44,598.075 633.498,598.075 633.498,1345.95 1170.44,1345.95 "/>
  <path class="fil5" d="M901.97 1399.91c26.8051,0 48.5457,21.7347 48.5457,48.5422 0,26.811 -21.7406,48.5433 -48.5457,48.5433 -26.8051,0 -48.5398,-21.7323 -48.5398,-48.5433 0,-26.8075 21.7347,-48.5422 48.5398,-48.5422z"/>
  <path class="fil5" d="M845.997 526.35c-8.01379,0 -14.511,6.49725 -14.511,14.5087 0,8.01497 6.49725,14.511 14.511,14.511l111.951 0c8.01142,0 14.5087,-6.49607 14.5087,-14.511 0,-8.01142 -6.49725,-14.5087 -14.5087,-14.5087l-111.951 0z"/>
  <path class="fil6" d="M1474.41 820.786l0 332.742c0,6.81733 -5.52874,12.3449 -12.3461,12.3449l-703.317 0c-6.81851,0 -12.3461,-5.52756 -12.3461,-12.3449l0 -332.742 728.01 0z"/>
  <polygon class="fil7" points="1474.41,820.786 1474.41,845.475 746.396,845.475 746.396,820.786 "/>
  <path class="fil8" d="M758.742 697.334l703.317 0c6.81733,0 12.3461,5.52638 12.3461,12.3449l0 111.106 -728.01 0 0 -111.106c0,-6.81851 5.52756,-12.3449 12.3461,-12.3449z"/>
  <polygon class="fil9" points="1375.7,733.739 1375.7,783.119 1425.08,783.119 1425.08,733.739 "/>
  <polygon class="fil10" points="1202.75,783.119 1252.13,783.119 1252.13,733.739 1202.75,733.739 "/>
  <polygon class="fil11" points="1289.1,733.739 1289.1,783.119 1338.48,783.119 1338.48,733.739 "/>
  <path class="fil12" d="M910.314 923.468c2.66339,5.34331 5.36811,11.5724 8.05631,17.7662 6.06497,13.9689 12.0402,27.7323 16.6417,29.6788 4.69961,1.9878 19.0914,-3.80079 33.4453,-9.5752 8.44725,-3.39803 22.1339,-11.7744 30.2114,-3.8126 5.47796,4.43268 10.4847,8.91851 15.0024,13.435 4.79528,4.79528 9.55631,10.1445 14.2571,16.0205l0.0472441 -0.0389764c2.87008,3.58819 3.42874,8.27835 1.87677,12.274 -1.79882,5.16142 -4.17284,11.0634 -6.54804,16.9689 -5.77323,14.3539 -11.563,28.7469 -9.5752,33.4453 1.94646,4.60158 15.711,10.578 29.6799,16.6429 8.19331,3.5563 24.6154,7.77638 25.3984,18.6555 1.15276,10.0571 6.36733,49.2307 -7.63347,55.0571 -5.34331,2.66339 -11.5713,5.36811 -17.765,8.05631 -13.9689,6.06497 -27.7335,12.0413 -29.6788,16.6429 -1.9878,4.69843 3.80079,19.0902 9.57402,33.4429 2.44725,6.08504 4.89331,12.1654 6.70985,17.4366l0.00708662 -0.00236221c1.58977,4.61457 0.304725,9.52324 -2.90433,12.7784 -7.79646,9.63544 -29.2016,36.0449 -41.6977,31.1811 -5.15906,-1.79882 -11.0587,-4.17166 -16.963,-6.54567 -14.3528,-5.77323 -28.7445,-11.5618 -33.4441,-9.57402 -4.60158,1.94646 -10.5768,15.7099 -16.6417,29.6788 -3.55748,8.19449 -7.77638,24.6154 -18.6555,25.3996 -13.5024,1.54843 -49.5579,5.58308 -55.0571,-7.63347 -2.66339,-5.34331 -5.36811,-11.5713 -8.05749,-17.7662 -6.06378,-13.9689 -12.0402,-27.7323 -16.6417,-29.6788 -4.69843,-1.9878 -19.0902,3.80079 -33.4441,9.57402 -6.08386,2.44843 -12.1654,4.89331 -17.4366,6.71103l0.00354331 0.00708662c-4.61457,1.58858 -9.52442,0.303544 -12.7795,-2.90433 -5.47678,-4.43268 -10.4847,-8.91851 -15.0024,-13.4362 -6.31182,-6.31182 -20.2028,-17.9114 -16.1799,-28.2567 1.79882,-5.16378 4.17284,-11.0646 6.54804,-16.9701 5.77323,-14.3528 11.5606,-28.7433 9.57402,-33.4418 -1.94646,-4.60158 -15.7099,-10.578 -29.6799,-16.6429 -8.19331,-3.5563 -24.6154,-7.77638 -25.3984,-18.6555 -0.392126,-3.42402 -0.705119,-7.03465 -0.930709,-10.8402 -0.239764,-4.0689 -0.36378,-7.87205 -0.36378,-11.3894 0,-3.51496 0.124016,-7.31693 0.36378,-11.3858 0.238583,-4.01929 0.572835,-7.82245 0.998032,-11.4189l-0.011811 -0.0011811c0.54567,-4.62284 3.56457,-8.35158 7.57678,-10.0217 5.34449,-2.66339 11.5713,-5.36811 17.7673,-8.05749 13.9689,-6.06378 27.7323,-12.0402 29.6788,-16.6417 1.98662,-4.69843 -3.80197,-19.0902 -9.5752,-33.4429 -2.44725,-6.08504 -4.89331,-12.1665 -6.70985,-17.4366l-0.00708662 0.00236221c-1.58977,-4.61457 -0.304725,-9.52324 2.90433,-12.7784 4.4315,-5.47796 8.91851,-10.4858 13.435,-15.0036 6.31182,-6.31182 17.9114,-20.2016 28.2579,-16.1799 5.1626,1.79882 11.0646,4.17284 16.9701,6.54922 14.3516,5.77205 28.7433,11.5606 33.4418,9.57284 4.60158,-1.94528 10.578,-15.7099 16.6417,-29.6788 6.95434,-16.0217 6.9319,-22.748 20.2583,-25.2933 12.0803,-2.30551 48.2764,-4.91811 53.4556,7.52717z"/>
  <path class="fil12" d="M928.628 1056.32c-13.0099,-13.0099 -30.9839,-21.0567 -50.8382,-21.0567 -19.8543,0 -37.8284,8.04686 -50.8382,21.0567 -13.0099,13.0099 -21.0567,30.9839 -21.0567,50.8382 0,19.8555 8.04686,37.8296 21.0567,50.8394 13.0099,13.0099 30.9839,21.0567 50.8382,21.0567 19.8543,0 37.8284,-8.04686 50.8382,-21.0567 13.0099,-13.0099 21.0567,-30.9839 21.0567,-50.8394 0,-19.8543 -8.04686,-37.8284 -21.0567,-50.8382z"/>
  <path class="fil13" d="M877.79 1010.41c26.7142,0 50.902,10.8295 68.4107,28.3382 17.5087,17.5087 28.3394,41.6965 28.3394,68.4107 0,26.7154 -10.8307,50.9032 -28.3394,68.4119 -17.5087,17.5087 -41.6965,28.3382 -68.4107,28.3382 -26.7154,0 -50.902,-10.8295 -68.4107,-28.3382 -17.5099,-17.5087 -28.3394,-41.6965 -28.3394,-68.4119 0,-26.7142 10.8295,-50.902 28.3394,-68.4107 17.5087,-17.5087 41.6953,-28.3382 68.4107,-28.3382z"/>
  <path class="fil12" d="M893.274 1091.67c-3.96142,-3.96142 -9.43702,-6.41221 -15.4843,-6.41221 -6.04843,0 -11.5228,2.45079 -15.4843,6.41221 -3.96142,3.9626 -6.41221,9.4382 -6.41221,15.4843 0,6.04843 2.45079,11.5228 6.41221,15.4843 3.96142,3.9626 9.43583,6.41221 15.4843,6.41221 6.04725,0 11.5228,-2.44961 15.4843,-6.41221 3.96142,-3.96142 6.41221,-9.43583 6.41221,-15.4843 0,-6.04607 -2.45079,-11.5217 -6.41221,-15.4843z"/>
  <path class="fil12" d="M877.79 1060.41c12.9071,0 24.5965,5.23347 33.0567,13.6937 8.46024,8.46142 13.6937,20.1496 13.6937,33.0567 0,12.9095 -5.23347,24.5965 -13.6937,33.0579 -8.46024,8.46024 -20.1496,13.6937 -33.0567,13.6937 -12.9083,0 -24.5965,-5.23347 -33.0567,-13.6937 -8.46024,-8.46142 -13.6937,-20.1484 -13.6937,-33.0579 0,-12.9071 5.23347,-24.5953 13.6937,-33.0567 8.46024,-8.46024 20.1484,-13.6937 33.0567,-13.6937z"/>
 </g>
</svg>
